# xmcd
#
# Track frame offsets: 
#        150
#        16822
#        30250
#        48627
#        62677
#        75605
#        93622
#        109770
#        125267
#        141525
#
# Disc length: 2104 seconds
#
# Revision: 0
# Processed by: cddbd v1.5.1PL2 Copyright (c) Steve Scherf et al.
# Submitted via: ExactAudioCopy v0.95b4
#
DISCID=7f08360a
DTITLE=แบงค์  บุญชัย - น้ำตาลเพียวๆ 
DYEAR=1900
DGENRE=Country
TTITLE0=น้ำตาเพียวๆ
TTITLE1=หนุ่มบุรีรัมย์
TTITLE2=ยังรักเหมือนเดิม
TTITLE3=อีหล่าหลงแถว
TTITLE4=คนเดียวไข่โหล
TTITLE5=อยู่ใสสาวนา
TTITLE6=ถูกแพงแดงไว้ก่อน
TTITLE7=ปั้นจี้ม
TTITLE8=ความหวังยังมี
TTITLE9=บุญรักบุญกฐิน
EXTD=
EXTT0=
EXTT1=
EXTT2=
EXTT3=
EXTT4=
EXTT5=
EXTT6=
EXTT7=
EXTT8=
EXTT9=
PLAYORDER=
